<svg xmlns="http://www.w3.org/2000/svg" enable-background="new 0 0 48 48" viewBox="0 0 48 48" id="spoon"><path d="M28.5 4.5c-.55 0-1 .45-1 1v11c0 1.65 1.35 3 3 3h2v24c0 .55.45 1 1 1s1-.45 1-1v-24h2c1.65 0 3-1.35 3-3v-11c0-.55-.45-1-1-1s-1 .45-1 1v11c0 .55-.45 1-1 1h-2v-12c0-.55-.45-1-1-1s-1 .45-1 1v12h-2c-.55 0-1-.45-1-1v-11C29.5 4.95 29.05 4.5 28.5 4.5zM22.5 14c0-5.89-3.07-10.5-7-10.5s-7 4.61-7 10.5c0 4.65 1.92 8.49 4.66 9.91L12.5 41.5c0 .81.32 1.57.87 2.11.56.58 1.32.89 2.13.89 1.65 0 3-1.35 3-3.04l-.66-17.56C20.58 22.49 22.5 18.65 22.5 14zM15.5 42.5c-.27 0-.51-.1-.71-.31-.19-.18-.29-.43-.29-.66l.64-17.06c.12.01.24.03.36.03s.24-.02.36-.03L16.5 41.5C16.5 42.05 16.05 42.5 15.5 42.5zM15.5 22.5c-2.71 0-5-3.89-5-8.5s2.29-8.5 5-8.5 5 3.89 5 8.5S18.21 22.5 15.5 22.5z" fill="#000000"></path></svg>